<svg width="1439" height="1938" viewBox="0 0 1439 1938" fill="none" xmlns="http://www.w3.org/2000/svg">
<path fill-rule="evenodd" clip-rule="evenodd" d="M1368.33 724.133C1403.93 694.933 1434.33 669.733 1436.07 668.133L1439 665.333L1438.33 0.666016L1361.67 63.7327C1319.53 98.3993 1183.67 210.133 1059.67 311.999C995.292 364.94 933.403 415.792 886.538 454.299C843.228 489.886 812.749 514.929 805 521.333C788.867 534.666 745.133 570.666 707.667 601.333C670.333 632.133 632.2 663.466 623 670.933C613.934 678.533 606.067 684.666 605.667 684.666C605.267 684.666 605.134 672.533 605.4 657.599L605.8 630.533L666.333 580.666L727 530.799V367.999L678.2 328.933C635.533 294.933 629.133 290.266 627.133 291.599C625.933 292.533 598.333 315.199 565.8 341.999C533.267 368.799 503.533 393.199 499.533 396.399L492.333 402.266V369.199L480.733 359.999C476.224 356.411 464.221 346.788 450.378 335.691C444.163 330.709 437.578 325.43 431.133 320.266C406.333 300.399 392.867 290.266 391.8 291.066C391.634 291.204 390.665 291.997 389.027 293.335C382.773 298.449 366.775 311.528 348.6 326.533C319.667 350.266 306.333 360.533 305.267 359.599C304.513 359.061 292.014 348.865 275.43 335.338C271.484 332.118 267.306 328.711 263 325.199C240.6 306.799 221.667 291.466 220.733 290.933C219.8 290.266 195.133 309.733 155.4 342.266C120.333 370.933 88.4667 397.333 84.4667 400.799L77.2668 406.933L38.8667 502.799C17.8001 555.599 0.733487 598.799 1.00015 599.066C1.26682 599.333 17.5334 586.266 37.2668 569.999L73.0002 540.533L73.4001 625.866L73.6668 711.199L124.733 752.799C152.733 775.733 176.333 794.933 177 795.466C177.8 795.999 193 784.533 212.333 768.666L246.333 740.799L246.733 782.666C246.867 805.733 247.4 824.666 247.933 824.666C248.467 824.666 250.733 822.933 253 820.933C261.267 813.199 368.333 725.999 368.333 726.933V776.399C368.333 808.266 368.733 824.799 369.667 824.399C370.333 824.266 395.667 803.599 425.934 778.666C456.2 753.733 481.4 733.066 481.934 732.933C482.467 732.666 483 744.399 483 759.199V785.866L472.067 795.066C463.051 802.56 441.284 820.439 347.62 897.376C334.627 908.049 320.251 919.858 304.333 932.933C276.067 956.133 208.6 1011.6 154.333 1056.27L55.6668 1137.47L55.0002 1478.67L89.4001 1506.8C102.095 1517.15 144.032 1551.58 195.343 1593.71C220.019 1613.96 246.864 1636 273.667 1658C308.805 1686.84 340.62 1712.96 369.375 1736.57C555.676 1889.51 613.489 1936.97 614.067 1937.2C614.333 1937.2 658.067 1901.6 711.133 1858L724.688 1846.86C776.956 1803.92 846.977 1746.39 887 1713.47C903.211 1700.13 924.142 1682.92 946.679 1664.39C984.756 1633.09 1027.42 1598.02 1059.67 1571.47C1111 1529.33 1157.67 1490.93 1163.4 1486.13L1173.67 1477.6L1173.8 1177.33L1228.47 1132.67C1258.47 1108.13 1287.27 1084.4 1292.47 1080L1301.8 1072V925.999C1301.67 845.733 1302.2 779.333 1302.73 778.533C1303.27 777.733 1332.73 753.199 1368.33 724.133Z" fill="white"/>
<path d="M1363.67 124.933C1350.47 135.867 1325.27 156.667 1307.67 171.2C1290.07 185.6 1245.13 222.533 1207.67 253.333C1170.33 284 1129.8 317.333 1117.67 327.333C1105.53 337.333 1081.93 356.8 1065 370.667C997.8 425.867 859.4 539.6 802.467 586.4C769.4 613.733 732.067 644.4 719.533 654.667C689.133 679.6 678.333 688.533 604.333 749.333C569.533 778 491.8 841.867 431.667 891.333C371.533 940.8 300.467 999.2 273.667 1021.2C199.4 1082.27 167.8 1108.27 133.933 1136L103 1161.33V1283.6C103 1350.93 103.533 1406 104.067 1406C104.733 1406 110.867 1401.33 117.8 1395.6C124.733 1389.87 169.4 1353.2 217 1314C264.733 1274.8 330.733 1220.53 363.667 1193.47C396.733 1166.27 442.333 1128.8 465 1110.13C487.8 1091.47 516.2 1068 528.333 1058C540.467 1048 581 1014.67 618.333 984C755.4 871.333 807.4 828.667 855 789.467C881.8 767.467 922.333 734.133 945 715.467C967.8 696.8 996.2 673.333 1008.33 663.333C1020.47 653.333 1042.07 635.6 1056.33 623.867C1083.13 601.867 1144.33 551.467 1300.07 423.467L1389.67 349.733V227.2C1389.67 159.867 1389.27 104.667 1388.73 104.8C1388.07 104.8 1376.87 113.867 1363.67 124.933Z" fill="#FE0000"/>
<path d="M159 370.665L98.333 420.532L83.3997 457.199C75.2664 477.465 68.8664 493.999 69.133 493.999C69.533 493.999 74.733 489.865 80.733 484.932C96.1997 471.999 152.6 425.865 155 424.132C156.6 422.932 156.733 423.065 155.533 424.665C149.8 432.532 113.933 480.932 106.733 490.665L97.6664 502.665L97.7997 601.332V699.999L131.533 727.332C150.2 742.399 166.2 754.665 167.266 754.532C168.2 754.399 204.866 725.065 248.466 689.065C292.2 653.199 328.6 623.332 329.533 622.665C330.466 622.132 317.666 638.132 301.133 658.399L271 695.065V725.332C271 741.999 271.533 755.332 272.2 755.065C272.733 754.799 286.866 743.599 303.4 729.999L333.666 705.332V662.399V619.465L340.733 613.465C357 599.465 391.8 571.332 392.733 571.332C393.266 571.332 393.533 612.799 393.4 663.332C393.133 713.999 393.266 755.332 393.666 755.332C394.066 755.332 432.6 723.865 479.4 685.332C526.2 646.799 564.733 615.332 565.133 615.332C565.4 615.332 552.466 632.932 536.333 654.265L507 693.332V721.732V750.265L512.066 746.265C514.733 743.999 528.6 732.665 542.733 721.065L568.6 699.865L568.466 656.265V612.532L572.466 608.932C574.733 606.932 602.2 584.265 633.4 558.532L690.333 511.732L690.733 441.065L691 370.265L661.4 346.532C645.133 333.465 630.733 322.799 629.666 322.799C628.466 322.665 600.466 344.799 567.4 371.999L507.133 421.332L507 516.665L506.866 611.999L481.933 632.399L457 652.799L456.333 511.999L455.666 371.199L424.466 345.999L393.266 320.932L362.466 346.265C345.533 360.265 318.066 382.799 301.4 396.532L271 421.332V517.332V613.465L232.333 645.199C211 662.665 193.133 676.665 192.466 676.399C191.666 676.132 183.933 670.132 175.133 662.799L159 649.732V511.065C159 421.065 159.4 372.665 160.333 372.932C161 373.065 172.466 381.865 185.666 392.399C200.866 404.532 210.2 411.199 211.266 410.532C213.266 409.332 263.666 368.132 267.4 364.665C269.8 362.532 268.866 361.599 247.4 343.999C235.133 333.865 223.8 324.532 222.333 323.199C219.666 320.932 218.2 322.132 159 370.665ZM364.6 395.999L393.666 419.999L393.266 466.532L393 513.065L364.333 536.799C348.6 549.865 335.266 560.532 334.733 560.532C334.066 560.665 333.666 517.999 333.666 465.865C333.666 413.732 334.066 371.332 334.733 371.599C335.266 371.732 348.733 382.799 364.6 395.999ZM599.133 395.065L627.666 417.465L628.066 464.799L628.333 512.132L600.466 535.065C585 547.732 571.533 558.399 570.333 558.799C568.6 559.465 568.333 549.732 568.333 466.132C568.466 414.665 568.866 372.665 569.533 372.665C570.066 372.665 583.4 382.799 599.133 395.065Z" fill="black"/>
<path d="M339 465.999C339 510.665 339.533 547.332 340.067 547.332C340.733 547.332 342.333 545.999 343.8 544.265C346.2 541.465 346.333 538.665 345.933 465.199L345.667 388.932L342.333 386.799L339 384.665V465.999Z" fill="black"/>
<path d="M573.667 466V550L577 547.867L580.334 545.733L580.6 466.4L581 387.067L577.4 384.4L573.667 381.867V466Z" fill="black"/>
<path d="M244.067 393.067C226.733 407.2 212.733 419.2 212.867 419.867C213 420.533 214.067 421.733 215.267 422.4C216.867 423.467 223.933 418.267 248.867 398C266.2 383.733 280.333 371.733 280.333 371.067C280.333 370.533 279.267 369.467 277.933 368.8C275.933 367.733 270.067 371.867 244.067 393.067Z" fill="black"/>
<path d="M696.334 445.467V516L635 566.533L573.667 616.933L573.533 661.2V705.333L540.867 731.867C512.2 755.2 508.333 758.8 508.333 762.267C508.333 764.267 508.733 766 509.133 766C509.667 766 573.4 714.133 578.733 709.333C580.067 708.133 580.467 698.4 580.467 664.533C580.333 640.8 580.733 620.667 581.4 619.867C581.933 619.067 609.534 596.133 642.734 568.8L703 519.2L702.734 449.067L702.334 378.933L699.4 376.933L696.334 375.067V445.467Z" fill="black"/>
<path d="M461.667 508.132V639.732L465 636.666L468.334 633.466L468.067 506.932L467.667 380.266L464.734 378.266L461.667 376.399V508.132Z" fill="black"/>
<path d="M164.333 514.933L164.467 645.333L167.667 647.733L171 650.133V519.733L170.867 389.333L167.667 386.933L164.333 384.533V514.933Z" fill="black"/>
<path d="M1373 416.933C1364.2 424.266 1325.27 456.533 1286.33 488.4C1247.53 520.4 1190.73 566.933 1160.33 592C1020.2 707.2 948.733 766 897 808.533C866.2 833.866 827.267 866 810.333 879.733C793.533 893.6 771.533 911.6 761.667 919.866C733.8 942.8 658.733 1004.53 597.667 1054.67C567.267 1079.6 518.333 1119.87 489 1144C459.667 1168.13 422.2 1198.93 405.667 1212.53C389.133 1226.13 353.8 1255.2 327 1277.2C300.2 1299.2 246.6 1343.33 207.667 1375.33C107 1458 108.333 1456.93 108.333 1457.87C108.333 1458.53 233.533 1562.27 250.467 1575.6C253.8 1578.27 234.733 1593.33 427 1435.2C555.8 1329.33 638.067 1261.6 708.733 1203.6C747.667 1171.47 796.733 1131.2 817.667 1114C838.6 1096.8 882.333 1060.8 915 1034C947.667 1007.2 989.667 972.666 1008.33 957.2C1167.67 826.266 1263 747.866 1325.93 696.133L1389.53 644L1389.67 523.6C1389.67 457.466 1389.53 403.333 1389.4 403.466C1389.13 403.466 1381.8 409.6 1373 416.933Z" fill="black"/>
<path d="M91.667 484.933C72.7336 500.533 67.1336 506 65.267 510.267C64.067 513.2 63.1336 515.867 63.4003 516.133C63.667 516.4 72.467 509.467 83.1336 500.8C96.3336 489.867 104.467 482 109.4 475.333C113.4 470.133 116.334 465.6 116.067 465.467C115.8 465.2 104.867 474 91.667 484.933Z" fill="black"/>
<path d="M362.067 604.932L339 623.866V666.932V709.866L306.2 736.799C288.2 751.599 273.134 764.532 272.734 765.466C272.467 766.399 272.334 768.399 272.6 769.866C272.867 772.266 278.867 767.866 309 743.199L345 713.732L345.667 670.266L346.334 626.666L363.667 612.266C373.267 604.266 382.067 596.932 383.4 595.999C385.134 594.799 385.667 592.932 385.4 590.132L385 585.999L362.067 604.932Z" fill="black"/>
<path d="M459.667 710.665C398.067 761.465 395.667 763.599 395.267 768.399L394.867 773.332L397.933 770.532C399.667 768.932 425.267 747.732 455 723.332C484.6 698.932 510.733 676.532 513 673.465C515.267 670.399 518.867 665.732 520.867 662.932C523 660.265 524.467 657.999 524.2 657.999C523.933 657.999 494.867 681.732 459.667 710.665Z" fill="black"/>
<path d="M227 716.266C198.067 740.133 174.333 760.4 174.333 761.066C174.333 761.733 175.267 762.933 176.467 763.733C179.667 765.733 256.334 702.4 268.334 687.866C277.534 676.666 280.734 672.666 280.067 672.666C279.8 672.8 255.934 692.4 227 716.266Z" fill="black"/>
<path d="M1240.73 819.733C1234.33 825.067 1215.53 840.667 1199 854.133C1108.33 928.667 935.667 1070.53 898.333 1101.33C882.2 1114.67 828.2 1159.07 778.333 1200C728.467 1241.07 674.2 1285.6 657.667 1299.2C641.133 1312.8 619.267 1330.8 608.867 1339.33C598.6 1347.73 563.133 1376.8 530.2 1404C450.733 1469.33 401 1510.27 339 1561.2C310.733 1584.4 287.533 1603.87 287.267 1604.53C287 1605.2 291.667 1609.47 297.4 1614.13C303.267 1618.8 322.6 1634.67 340.333 1649.33C435.933 1728.13 431.533 1724.67 433.933 1722.93C435.133 1722 461.267 1700.67 491.933 1675.33C544.067 1632.4 691.4 1511.2 794.333 1426.67C819.267 1406.27 849.533 1381.33 861.667 1371.33C873.8 1361.33 902.6 1337.6 925.667 1318.67C948.733 1299.6 980.867 1273.2 997 1260C1059.93 1208.13 1208.87 1085.87 1230.6 1068.13L1253.53 1049.33L1253.67 929.6C1253.67 863.867 1253.4 810 1253.13 810C1252.87 810 1247.27 814.4 1240.73 819.733Z" fill="#FE0000"/>
<path d="M1122.33 1210C1121.93 1210.67 1081.53 1244.13 1032.6 1284.4C983.667 1324.67 923 1374.53 897.667 1395.33C872.333 1416.13 840.333 1442.53 826.333 1454C812.467 1465.47 763.8 1505.47 718.333 1542.8C672.867 1580.13 597.133 1642.4 550.067 1681.2L464.467 1751.6L486.733 1770C579.8 1846.67 611.933 1872.93 613.4 1873.6C614.333 1874 617.933 1872 621.4 1869.07C624.867 1866.13 640.067 1853.6 655.133 1841.2C670.2 1828.8 693.933 1809.33 707.8 1797.87C731.4 1778.4 879.133 1657.07 1049 1517.47C1090.07 1483.73 1124.07 1455.47 1124.6 1454.67C1126.2 1452.67 1125.93 1208.67 1124.47 1208.67C1123.67 1208.67 1122.73 1209.2 1122.33 1210Z" fill="black"/>
</svg>
